# xmcd
#
# Track frame offsets:
# 150
# 27069
# 62671
# 89874
# 114239
# 129653
# 144869
# 174041
# 209420
# 240034
# 277527
# 315241
#
# Disc length: 4585 seconds
#
# Revision: 0
# Processed by: cddbd v1.4PL0 Copyright (c) Steve Scherf et al.
# Submitted via: Audion 3.0.2 (http://www.panic.com/audion/)
#
DISCID=8c11e70c
DTITLE=rumored high speed rail hub - bicycle - april 18 2003
DYEAR=1900
DGENRE=
TTITLE0=lowtide
TTITLE1=carcultureisasthma
TTITLE2=crashcoursedummy
TTITLE3=killkillkillkillkillthepoor
TTITLE4=pleasemayihaveanother
TTITLE5=thankyousir
TTITLE6=nowforever
TTITLE7=buylocalindependentonly
TTITLE8=csoah
TTITLE9=idonothingbutsadhana
TTITLE10=whatif
TTITLE11=bhn
EXTD=
EXTT0=
EXTT1=
EXTT2=
EXTT3=
EXTT4=
EXTT5=
EXTT6=
EXTT7=
EXTT8=
EXTT9=
EXTT10=
EXTT11=
PLAYORDER=
